# xmcd
#
# Track frame offsets:
#	150
#	12865
#	25490
#	36922
#	46797
#	55997
#	67222
#	77725
#	90357
#	100394
#	111569
#	122889
#	128811
#	139396
#	148409
#	158662
#	167650
#	175700
#	187645
#	195678
#
# Disc length: 2737 seconds
#
# Revision: 1
# Processed by: cddbd v1.5.1PL2 Copyright (c) Steve Scherf et al.
# Submitted via: audiograbber 1.83.01
#
DISCID=1b0aaf14
DTITLE=Johnny Cash - 20 Golden Hits
DYEAR=1900
DGENRE=Country
TTITLE0=I Walk The Line
TTITLE1=Folsom Prison Blues
TTITLE2=Belshaza
TTITLE3=Ballad of a Teenage Queen
TTITLE4=Blue Train
TTITLE5=Cry,Cry,Cry
TTITLE6=Get Rhythm
TTITLE7=Give my love to Rose
TTITLE8=Hey Porter
TTITLE9=Oh Lonesome Me
TTITLE10=Mean Eyed cat
TTITLE11=My Treasure
TTITLE12=You Win Again
TTITLE13=Two Timin' Women
TTITLE14=Straight A's In Love
TTITLE15=I Forgot To Remember To Forget
TTITLE16=I Can't Help It
TTITLE17=Port Of Lonely Hearts
TTITLE18=Sugartime
TTITLE19=Down The Street To 301
EXTD=
EXTT0=
EXTT1=
EXTT2=
EXTT3=
EXTT4=
EXTT5=
EXTT6=
EXTT7=
EXTT8=
EXTT9=
EXTT10=
EXTT11=
EXTT12=
EXTT13=
EXTT14=
EXTT15=
EXTT16=
EXTT17=
EXTT18=
EXTT19=
PLAYORDER=
